<svg xmlns="http://www.w3.org/2000/svg" xmlns:xlink="http://www.w3.org/1999/xlink" width="500" zoomAndPan="magnify" viewBox="0 0 375 374.999991" height="500" preserveAspectRatio="xMidYMid meet" version="1.0"><defs><g/><clipPath id="9bf81e74b4"><path d="M 128.5 105.996094 L 246.191406 105.996094 L 246.191406 189.246094 L 128.5 189.246094 Z M 128.5 105.996094 " clip-rule="nonzero"/></clipPath></defs><g clip-path="url(#9bf81e74b4)"><path fill="#00a2ea" d="M 163.121094 126.949219 L 177.550781 126.949219 L 177.550781 116.648438 C 177.550781 115.753906 178.445312 114.839844 179.363281 114.839844 L 193.792969 114.839844 L 193.792969 107.617188 C 193.792969 106.726562 194.519531 105.996094 195.414062 105.996094 L 211.652344 105.996094 C 212.542969 105.996094 213.273438 106.726562 213.273438 107.617188 L 213.273438 162.53125 C 216.515625 161.261719 219.59375 160.367188 222.484375 159.449219 L 221.757812 157.285156 C 221.757812 157.097656 221.757812 156.933594 221.757812 156.746094 C 221.945312 156.015625 222.484375 155.476562 223.378906 155.476562 L 231.863281 156.910156 C 232.214844 156.910156 232.589844 157.097656 232.753906 157.261719 C 233.296875 157.804688 233.109375 158.699219 232.566406 159.238281 L 226.246094 165.023438 C 226.058594 165.210938 225.894531 165.375 225.707031 165.375 C 224.976562 165.5625 224.273438 165.1875 224.082031 164.484375 L 223.355469 162.671875 C 218.84375 163.941406 213.601562 165.753906 208.007812 168.269531 C 201.6875 171.160156 195.011719 175.136719 188.339844 180.542969 C 187.796875 181.085938 186.90625 181.085938 186.363281 180.542969 C 179.691406 175.136719 173.015625 171.160156 166.695312 168.269531 C 164.886719 167.375 163.074219 166.644531 161.453125 165.917969 L 161.453125 128.570312 C 161.5 127.679688 162.230469 126.949219 163.121094 126.949219 Z M 140.914062 165.613281 L 141.101562 165.613281 C 152.125 167.234375 169.984375 171.75 187.492188 185.484375 C 204.8125 171.75 222.695312 167.234375 233.695312 165.613281 L 233.882812 165.613281 C 237.125 165.070312 239.664062 164.882812 241.636719 164.882812 L 220.347656 129.652344 C 219.996094 129.652344 219.453125 129.652344 218.914062 129.652344 C 218.183594 129.652344 217.292969 129.652344 216.375 129.84375 C 215.480469 129.84375 214.753906 129.113281 214.566406 128.21875 C 214.566406 127.324219 215.292969 126.597656 216.1875 126.410156 C 216.914062 126.410156 217.808594 126.410156 218.890625 126.410156 C 219.617188 126.21875 220.511719 126.21875 221.238281 126.21875 C 221.96875 126.21875 222.507812 126.574219 222.863281 127.113281 L 245.960938 165.585938 C 246.152344 165.941406 246.152344 166.316406 246.152344 166.480469 C 246.152344 167.5625 245.421875 168.292969 244.527344 168.105469 C 244.339844 168.105469 241.449219 168.105469 236.398438 168.644531 L 239.828125 177.132812 C 240.179688 178.027344 239.828125 178.945312 238.9375 179.296875 C 238.582031 179.488281 238.042969 179.488281 237.667969 179.296875 C 236.398438 178.945312 217.457031 173.890625 188.222656 189.058594 L 188.035156 189.058594 L 188.035156 189.246094 C 187.84375 189.246094 187.679688 189.246094 187.679688 189.246094 L 187.304688 189.246094 C 187.117188 189.246094 186.953125 189.246094 186.765625 189.246094 L 186.765625 189.058594 L 186.578125 189.058594 C 157.339844 173.890625 138.375 178.945312 137.132812 179.296875 C 136.777344 179.488281 136.238281 179.488281 135.863281 179.296875 C 134.96875 178.945312 134.59375 178.027344 134.96875 177.132812 L 138.398438 168.644531 C 133.699219 168.105469 130.644531 168.105469 130.457031 168.105469 C 130.105469 168.105469 129.726562 168.105469 129.375 167.917969 C 128.648438 167.375 128.484375 166.480469 128.835938 165.5625 L 152.101562 127.136719 C 152.289062 126.597656 152.828125 126.242188 153.371094 126.242188 C 154.261719 126.242188 155.179688 126.242188 156.074219 126.433594 C 156.964844 126.433594 157.882812 126.433594 158.609375 126.433594 C 159.691406 126.621094 160.230469 127.324219 160.230469 128.242188 C 160.230469 129.160156 159.339844 129.867188 158.421875 129.867188 C 157.53125 129.675781 156.613281 129.675781 155.882812 129.675781 C 155.34375 129.675781 154.804688 129.675781 154.449219 129.675781 L 133.160156 164.882812 C 135.132812 164.882812 137.671875 165.070312 140.914062 165.613281 Z M 141.832031 169.019531 L 139.292969 175.511719 C 144.535156 174.617188 155.90625 173.890625 171.605469 179.132812 C 160.230469 172.996094 149.398438 170.292969 141.832031 169.019531 Z M 203.191406 179.15625 C 218.890625 173.914062 230.265625 174.640625 235.503906 175.535156 L 232.96875 169.019531 C 225.398438 170.292969 214.566406 172.996094 203.191406 179.15625 Z M 197.246094 116.648438 L 197.246094 170.101562 C 198.140625 169.5625 199.21875 169.019531 200.324219 168.480469 C 202.132812 167.398438 204.109375 166.316406 206.105469 165.398438 C 207 165.046875 207.726562 164.671875 208.644531 164.316406 C 208.996094 164.128906 209.535156 163.964844 210.078125 163.777344 L 210.078125 109.21875 L 197.269531 109.21875 L 197.269531 116.648438 Z M 180.984375 128.570312 L 180.984375 172.289062 C 182.0625 173.019531 183.144531 173.726562 184.226562 174.453125 C 185.308594 175.183594 186.386719 176.078125 187.46875 176.804688 C 188.363281 176.078125 189.445312 175.183594 190.546875 174.453125 C 191.628906 173.726562 192.710938 173.019531 193.792969 172.289062 L 193.792969 118.273438 L 180.984375 118.273438 Z M 177.550781 130.195312 L 164.746094 130.195312 L 164.746094 163.800781 C 165.285156 163.988281 165.824219 164.152344 166.179688 164.339844 C 167.070312 164.695312 167.800781 165.070312 168.714844 165.421875 C 170.691406 166.316406 172.6875 167.398438 174.660156 168.503906 C 175.554688 169.042969 176.636719 169.585938 177.550781 170.125 Z M 177.550781 130.195312 " fill-opacity="1" fill-rule="nonzero"/></g><g fill="#00a2ea" fill-opacity="1"><g transform="translate(85.85247, 235.211044)"><g><path d="M 16.265625 0 L 11.609375 0 L 10.65625 -6.8125 L 6 -6.8125 L 5.140625 0 L 0.53125 0 L 5.421875 -30.09375 L 10.984375 -30.09375 Z M 8.203125 -24.578125 L 6.4375 -10.46875 L 10.171875 -10.46875 Z M 8.203125 -24.578125 "/></g></g></g><g fill="#00a2ea" fill-opacity="1"><g transform="translate(107.404442, 235.211044)"><g><path d="M 14.921875 -20.59375 L 10.265625 -20.59375 L 10.265625 -25.203125 C 10.265625 -25.742188 10.175781 -26.109375 10 -26.296875 C 9.832031 -26.492188 9.472656 -26.59375 8.921875 -26.59375 L 8.203125 -26.59375 C 7.660156 -26.59375 7.300781 -26.492188 7.125 -26.296875 C 6.945312 -26.109375 6.859375 -25.742188 6.859375 -25.203125 L 6.859375 -4.890625 C 6.859375 -4.316406 6.945312 -3.941406 7.125 -3.765625 C 7.300781 -3.585938 7.660156 -3.5 8.203125 -3.5 L 8.921875 -3.5 C 9.472656 -3.5 9.832031 -3.585938 10 -3.765625 C 10.175781 -3.941406 10.265625 -4.316406 10.265625 -4.890625 L 10.265625 -9.453125 L 14.921875 -9.453125 L 14.921875 -4.3125 C 14.921875 -1.40625 13.367188 0.046875 10.265625 0.046875 L 6.859375 0.046875 C 3.753906 0.046875 2.203125 -1.40625 2.203125 -4.3125 L 2.203125 -25.734375 C 2.203125 -28.640625 3.753906 -30.09375 6.859375 -30.09375 L 10.265625 -30.09375 C 13.367188 -30.09375 14.921875 -28.640625 14.921875 -25.734375 Z M 14.921875 -20.59375 "/></g></g></g><g fill="#00a2ea" fill-opacity="1"><g transform="translate(128.812412, 235.211044)"><g><path d="M 14.921875 -20.59375 L 10.265625 -20.59375 L 10.265625 -25.203125 C 10.265625 -25.742188 10.175781 -26.109375 10 -26.296875 C 9.832031 -26.492188 9.472656 -26.59375 8.921875 -26.59375 L 8.203125 -26.59375 C 7.660156 -26.59375 7.300781 -26.492188 7.125 -26.296875 C 6.945312 -26.109375 6.859375 -25.742188 6.859375 -25.203125 L 6.859375 -4.890625 C 6.859375 -4.316406 6.945312 -3.941406 7.125 -3.765625 C 7.300781 -3.585938 7.660156 -3.5 8.203125 -3.5 L 8.921875 -3.5 C 9.472656 -3.5 9.832031 -3.585938 10 -3.765625 C 10.175781 -3.941406 10.265625 -4.316406 10.265625 -4.890625 L 10.265625 -9.453125 L 14.921875 -9.453125 L 14.921875 -4.3125 C 14.921875 -1.40625 13.367188 0.046875 10.265625 0.046875 L 6.859375 0.046875 C 3.753906 0.046875 2.203125 -1.40625 2.203125 -4.3125 L 2.203125 -25.734375 C 2.203125 -28.640625 3.753906 -30.09375 6.859375 -30.09375 L 10.265625 -30.09375 C 13.367188 -30.09375 14.921875 -28.640625 14.921875 -25.734375 Z M 14.921875 -20.59375 "/></g></g></g><g fill="#00a2ea" fill-opacity="1"><g transform="translate(150.220384, 235.211044)"><g><path d="M 10.078125 -30.09375 C 13.179688 -30.09375 14.734375 -28.640625 14.734375 -25.734375 L 14.734375 -4.375 C 14.734375 -1.457031 13.179688 0 10.078125 0 L 6.859375 0 C 3.785156 0 2.25 -1.457031 2.25 -4.375 L 2.25 -25.734375 C 2.25 -28.640625 3.785156 -30.09375 6.859375 -30.09375 Z M 10.125 -25.0625 C 10.125 -25.601562 10.023438 -25.96875 9.828125 -26.15625 C 9.640625 -26.351562 9.257812 -26.453125 8.6875 -26.453125 L 8.25 -26.453125 C 7.675781 -26.453125 7.300781 -26.351562 7.125 -26.15625 C 6.945312 -25.96875 6.859375 -25.601562 6.859375 -25.0625 L 6.859375 -5.046875 C 6.859375 -4.492188 6.945312 -4.117188 7.125 -3.921875 C 7.300781 -3.734375 7.675781 -3.640625 8.25 -3.640625 L 8.6875 -3.640625 C 9.257812 -3.640625 9.640625 -3.734375 9.828125 -3.921875 C 10.023438 -4.117188 10.125 -4.492188 10.125 -5.046875 Z M 10.125 -25.0625 "/></g></g></g><g fill="#00a2ea" fill-opacity="1"><g transform="translate(171.916354, 235.211044)"><g><path d="M 10.703125 -30.09375 L 15.3125 -30.09375 L 15.3125 -4.375 C 15.3125 -1.457031 13.757812 0 10.65625 0 L 7.015625 0 C 3.910156 0 2.359375 -1.457031 2.359375 -4.375 L 2.359375 -30.09375 L 6.953125 -30.09375 L 6.953125 -5.046875 C 6.953125 -4.492188 7.039062 -4.117188 7.21875 -3.921875 C 7.394531 -3.734375 7.753906 -3.640625 8.296875 -3.640625 L 9.359375 -3.640625 C 9.898438 -3.640625 10.257812 -3.734375 10.4375 -3.921875 C 10.613281 -4.117188 10.703125 -4.492188 10.703125 -5.046875 Z M 10.703125 -30.09375 "/></g></g></g><g fill="#00a2ea" fill-opacity="1"><g transform="translate(194.332324, 235.211044)"><g><path d="M 6.671875 0 L 2.453125 0 L 2.453125 -30.09375 L 7.15625 -30.09375 L 11.421875 -9.3125 L 11.421875 -30.09375 L 15.703125 -30.09375 L 15.703125 0 L 11.140625 0 L 6.671875 -21.3125 Z M 6.671875 0 "/></g></g></g><g fill="#00a2ea" fill-opacity="1"><g transform="translate(217.228288, 235.211044)"><g><path d="M 12.140625 -30.09375 L 12.140625 -26.453125 L 8.5 -26.453125 L 8.5 0 L 3.890625 0 L 3.890625 -26.453125 L 0.234375 -26.453125 L 0.234375 -30.09375 Z M 12.140625 -30.09375 "/></g></g></g><g fill="#00a2ea" fill-opacity="1"><g transform="translate(234.36427, 235.211044)"><g><path d="M 7.390625 0 L 2.78125 0 L 2.78125 -30.09375 L 7.390625 -30.09375 Z M 7.390625 0 "/></g></g></g><g fill="#00a2ea" fill-opacity="1"><g transform="translate(249.340248, 235.211044)"><g><path d="M 6.671875 0 L 2.453125 0 L 2.453125 -30.09375 L 7.15625 -30.09375 L 11.421875 -9.3125 L 11.421875 -30.09375 L 15.703125 -30.09375 L 15.703125 0 L 11.140625 0 L 6.671875 -21.3125 Z M 6.671875 0 "/></g></g></g><g fill="#00a2ea" fill-opacity="1"><g transform="translate(272.236212, 235.211044)"><g><path d="M 14.921875 -21.171875 L 10.265625 -21.171875 L 10.265625 -25.203125 C 10.265625 -25.742188 10.171875 -26.109375 9.984375 -26.296875 C 9.796875 -26.492188 9.425781 -26.59375 8.875 -26.59375 L 8.25 -26.59375 C 7.707031 -26.59375 7.335938 -26.492188 7.140625 -26.296875 C 6.953125 -26.109375 6.859375 -25.742188 6.859375 -25.203125 L 6.859375 -4.890625 C 6.859375 -4.316406 6.953125 -3.941406 7.140625 -3.765625 C 7.335938 -3.585938 7.707031 -3.5 8.25 -3.5 L 8.875 -3.5 C 9.425781 -3.5 9.796875 -3.585938 9.984375 -3.765625 C 10.171875 -3.941406 10.265625 -4.316406 10.265625 -4.890625 L 10.265625 -12.046875 L 8.921875 -12.046875 L 8.921875 -15.546875 L 14.921875 -15.546875 L 14.921875 -4.3125 C 14.921875 -1.40625 13.367188 0.046875 10.265625 0.046875 L 6.859375 0.046875 C 3.753906 0.046875 2.203125 -1.40625 2.203125 -4.3125 L 2.203125 -25.734375 C 2.203125 -28.640625 3.753906 -30.09375 6.859375 -30.09375 L 10.265625 -30.09375 C 13.367188 -30.09375 14.921875 -28.640625 14.921875 -25.734375 Z M 14.921875 -21.171875 "/></g></g></g></svg>