<svg xmlns="http://www.w3.org/2000/svg" xmlns:xlink="http://www.w3.org/1999/xlink" width="500" zoomAndPan="magnify" viewBox="0 0 375 374.999991" height="500" preserveAspectRatio="xMidYMid meet" version="1.0"><defs><g/><clipPath id="54cbe3d268"><path d="M 108.785156 108.492188 L 265.535156 108.492188 L 265.535156 265.242188 L 108.785156 265.242188 Z M 108.785156 108.492188 " clip-rule="nonzero"/></clipPath><clipPath id="adee80d982"><path d="M 88.679688 88.679688 L 286.554688 88.679688 L 286.554688 286.554688 L 88.679688 286.554688 Z M 88.679688 88.679688 " clip-rule="nonzero"/></clipPath><clipPath id="e66ef8bfa3"><path d="M 187.5 286.320312 C 161.117188 286.320312 136.273438 276.050781 117.632812 257.367188 C 98.949219 238.726562 88.679688 213.882812 88.679688 187.5 C 88.679688 161.117188 98.949219 136.273438 117.632812 117.632812 C 136.273438 98.949219 161.117188 88.679688 187.5 88.679688 C 213.882812 88.679688 238.726562 98.949219 257.367188 117.632812 C 276.050781 136.3125 286.320312 161.117188 286.320312 187.5 C 286.320312 213.882812 276.050781 238.726562 257.367188 257.367188 C 238.726562 276.050781 213.882812 286.320312 187.5 286.320312 M 187.5 94.605469 C 162.695312 94.605469 139.355469 104.28125 121.816406 121.816406 C 104.28125 139.355469 94.605469 162.695312 94.605469 187.5 C 94.605469 212.304688 104.28125 235.644531 121.816406 253.183594 C 139.355469 270.71875 162.695312 280.394531 187.5 280.394531 C 212.304688 280.394531 235.644531 270.71875 253.183594 253.183594 C 270.71875 235.644531 280.394531 212.304688 280.394531 187.5 C 280.394531 162.695312 270.71875 139.355469 253.183594 121.816406 C 235.644531 104.28125 212.304688 94.605469 187.5 94.605469 " clip-rule="nonzero"/></clipPath></defs><g clip-path="url(#54cbe3d268)"><path fill="#00a2ea" d="M 260.683594 207.761719 C 258.699219 214.527344 255.664062 220.949219 251.898438 226.859375 C 248.789062 231.671875 245.253906 236.191406 241.28125 240.304688 C 240.769531 240.867188 240.195312 241.367188 239.648438 241.898438 C 239.09375 242.421875 238.558594 242.957031 237.992188 243.464844 L 236.269531 244.964844 L 235.40625 245.710938 L 234.515625 246.421875 L 232.730469 247.847656 C 232.128906 248.308594 231.503906 248.746094 230.894531 249.199219 C 229.683594 250.125 228.398438 250.9375 227.136719 251.792969 C 226.957031 251.917969 226.765625 252.042969 226.566406 252.179688 C 226.359375 252.300781 226.148438 252.429688 225.925781 252.5625 C 225.480469 252.828125 225 253.113281 224.492188 253.417969 C 223.484375 254.050781 222.296875 254.648438 221.011719 255.332031 C 220.6875 255.496094 220.363281 255.679688 220.019531 255.84375 C 219.675781 256.003906 219.328125 256.164062 218.96875 256.332031 C 218.253906 256.660156 217.515625 257.003906 216.75 257.355469 C 215.183594 257.96875 213.550781 258.703125 211.769531 259.273438 C 204.738281 261.824219 195.964844 263.398438 187.160156 263.4375 C 178.351562 263.398438 169.578125 261.824219 162.546875 259.273438 C 160.765625 258.703125 159.132812 257.96875 157.566406 257.355469 C 156.800781 257.003906 156.0625 256.660156 155.347656 256.332031 C 154.992188 256.164062 154.640625 256.003906 154.296875 255.84375 C 153.953125 255.679688 153.632812 255.496094 153.308594 255.332031 C 152.023438 254.648438 150.832031 254.050781 149.824219 253.417969 C 149.316406 253.113281 148.835938 252.828125 148.394531 252.5625 C 148.171875 252.429688 147.957031 252.300781 147.753906 252.179688 C 147.554688 252.042969 147.363281 251.917969 147.179688 251.792969 C 142.398438 248.660156 137.902344 245.097656 133.816406 241.097656 C 129.507812 236.792969 125.742188 231.972656 122.421875 226.859375 C 118.652344 220.949219 115.621094 214.527344 113.632812 207.761719 C 111.5625 201.019531 110.605469 193.945312 110.542969 186.867188 C 110.605469 179.789062 111.5625 172.710938 113.632812 165.96875 C 115.621094 159.203125 118.652344 152.785156 122.417969 146.871094 C 125.527344 142.0625 129.0625 137.539062 133.035156 133.425781 C 133.546875 132.867188 134.121094 132.363281 134.667969 131.832031 C 135.222656 131.3125 135.761719 130.773438 136.328125 130.265625 L 138.046875 128.769531 L 138.910156 128.019531 L 139.800781 127.308594 L 141.585938 125.886719 C 142.1875 125.421875 142.8125 124.988281 143.425781 124.535156 C 144.632812 123.609375 145.921875 122.792969 147.179688 121.9375 C 147.363281 121.816406 147.550781 121.6875 147.75 121.554688 C 147.957031 121.429688 148.167969 121.300781 148.390625 121.167969 C 148.835938 120.902344 149.316406 120.617188 149.824219 120.3125 C 150.832031 119.679688 152.023438 119.085938 153.308594 118.402344 C 153.628906 118.234375 153.953125 118.054688 154.296875 117.890625 C 154.640625 117.730469 154.988281 117.566406 155.347656 117.402344 C 156.0625 117.070312 156.800781 116.730469 157.566406 116.375 C 159.132812 115.765625 160.765625 115.027344 162.546875 114.457031 C 169.578125 111.910156 178.351562 110.332031 187.160156 110.296875 C 195.964844 110.332031 204.738281 111.910156 211.769531 114.457031 C 213.550781 115.027344 215.183594 115.765625 216.75 116.375 C 217.515625 116.730469 218.253906 117.070312 218.96875 117.402344 C 219.324219 117.566406 219.675781 117.730469 220.019531 117.890625 C 220.363281 118.050781 220.6875 118.234375 221.007812 118.402344 C 222.292969 119.085938 223.484375 119.679688 224.492188 120.3125 C 225 120.617188 225.480469 120.902344 225.925781 121.167969 C 226.144531 121.300781 226.359375 121.429688 226.566406 121.554688 C 226.765625 121.6875 226.953125 121.816406 227.136719 121.9375 C 231.921875 125.070312 236.414062 128.632812 240.5 132.632812 C 244.808594 136.9375 248.574219 141.757812 251.898438 146.871094 C 255.664062 152.785156 258.699219 159.203125 260.683594 165.96875 C 262.753906 172.710938 263.710938 179.789062 263.773438 186.867188 C 263.710938 193.945312 262.753906 201.019531 260.683594 207.761719 Z M 265.53125 186.8125 L 265.53125 186.808594 C 265.46875 179.582031 264.496094 172.351562 262.390625 165.457031 C 260.363281 158.539062 257.265625 151.976562 253.398438 145.945312 L 251.539062 143.152344 C 251.539062 143.152344 251 142.402344 250.195312 141.273438 C 249.421875 140.125 248.234375 138.707031 247.097656 137.25 C 245.878906 135.867188 244.707031 134.4375 243.722656 133.464844 C 242.765625 132.464844 242.125 131.796875 242.125 131.796875 C 242.125 131.796875 241.964844 131.632812 241.671875 131.351562 C 241.382812 131.074219 240.96875 130.671875 240.472656 130.191406 C 239.5 129.203125 238.089844 128.011719 236.707031 126.789062 C 236 126.199219 235.269531 125.632812 234.59375 125.089844 C 234.257812 124.820312 233.929688 124.5625 233.617188 124.316406 C 233.296875 124.082031 232.992188 123.863281 232.710938 123.660156 C 231.589844 122.851562 230.84375 122.3125 230.84375 122.3125 C 230.84375 122.3125 230.679688 122.179688 230.414062 122.007812 C 230.152344 121.835938 229.804688 121.601562 229.457031 121.367188 C 228.761719 120.902344 228.066406 120.4375 228.066406 120.4375 C 227.878906 120.3125 227.683594 120.179688 227.480469 120.042969 C 227.273438 119.914062 227.054688 119.78125 226.828125 119.644531 C 226.371094 119.371094 225.882812 119.078125 225.363281 118.765625 C 224.335938 118.117188 223.117188 117.503906 221.804688 116.804688 C 221.472656 116.632812 221.140625 116.449219 220.789062 116.28125 C 220.4375 116.117188 220.082031 115.949219 219.714844 115.777344 C 218.984375 115.441406 218.226562 115.089844 217.445312 114.726562 C 215.84375 114.097656 214.171875 113.347656 212.347656 112.757812 C 205.152344 110.144531 196.167969 108.527344 187.160156 108.492188 C 178.148438 108.527344 169.164062 110.144531 161.96875 112.761719 C 160.144531 113.347656 158.472656 114.097656 156.871094 114.726562 C 156.089844 115.089844 155.332031 115.441406 154.601562 115.777344 C 154.234375 115.949219 153.878906 116.117188 153.527344 116.28125 C 153.175781 116.449219 152.84375 116.632812 152.511719 116.804688 C 151.199219 117.503906 149.980469 118.117188 148.953125 118.765625 C 148.433594 119.078125 147.945312 119.371094 147.488281 119.644531 C 147.261719 119.78125 147.042969 119.914062 146.835938 120.042969 C 146.632812 120.179688 146.4375 120.3125 146.25 120.4375 C 146.25 120.4375 145.554688 120.902344 144.859375 121.367188 C 144.511719 121.601562 144.164062 121.835938 143.902344 122.007812 C 143.636719 122.179688 143.476562 122.3125 143.476562 122.3125 C 143.476562 122.3125 142.726562 122.851562 141.605469 123.660156 C 141.324219 123.863281 141.019531 124.082031 140.699219 124.316406 C 140.386719 124.5625 140.0625 124.820312 139.722656 125.089844 C 139.046875 125.632812 138.316406 126.199219 137.609375 126.789062 C 136.226562 128.011719 134.816406 129.203125 133.847656 130.191406 C 133.347656 130.671875 132.933594 131.074219 132.644531 131.351562 C 132.351562 131.632812 132.191406 131.796875 132.191406 131.796875 C 132.191406 131.796875 131.554688 132.464844 130.597656 133.464844 C 129.609375 134.4375 128.4375 135.867188 127.21875 137.25 C 126.082031 138.707031 124.894531 140.125 124.121094 141.273438 C 123.316406 142.402344 122.777344 143.152344 122.777344 143.152344 L 120.917969 145.945312 C 117.054688 151.976562 113.953125 158.539062 111.925781 165.457031 C 109.820312 172.351562 108.851562 179.582031 108.785156 186.808594 L 108.785156 186.925781 C 108.851562 194.152344 109.820312 201.382812 111.925781 208.277344 C 113.953125 215.191406 117.054688 221.757812 120.917969 227.785156 L 122.777344 230.578125 C 122.777344 230.578125 123.316406 231.332031 124.121094 232.457031 C 124.898438 233.609375 126.082031 235.027344 127.21875 236.484375 C 128.4375 237.867188 129.609375 239.296875 130.597656 240.269531 C 131.554688 241.269531 132.191406 241.933594 132.191406 241.933594 C 132.191406 241.933594 132.351562 242.097656 132.644531 242.378906 C 132.933594 242.660156 133.347656 243.058594 133.847656 243.539062 C 134.816406 244.53125 136.226562 245.722656 137.609375 246.945312 C 138.316406 247.53125 139.046875 248.097656 139.722656 248.640625 C 140.0625 248.910156 140.386719 249.167969 140.699219 249.417969 C 141.019531 249.648438 141.324219 249.867188 141.605469 250.070312 C 142.726562 250.878906 143.476562 251.421875 143.476562 251.421875 C 143.476562 251.421875 143.636719 251.554688 143.902344 251.722656 C 144.164062 251.898438 144.511719 252.128906 144.859375 252.363281 C 145.554688 252.828125 146.25 253.296875 146.25 253.296875 C 146.4375 253.421875 146.632812 253.554688 146.835938 253.691406 C 147.042969 253.816406 147.261719 253.949219 147.488281 254.085938 C 147.945312 254.359375 148.433594 254.652344 148.953125 254.964844 C 149.980469 255.613281 151.199219 256.226562 152.515625 256.925781 C 152.84375 257.097656 153.175781 257.285156 153.527344 257.453125 C 153.878906 257.617188 154.238281 257.785156 154.601562 257.953125 C 155.332031 258.292969 156.089844 258.644531 156.871094 259.003906 C 158.472656 259.636719 160.144531 260.386719 161.96875 260.972656 C 169.164062 263.585938 178.148438 265.203125 187.160156 265.242188 C 196.167969 265.203125 205.152344 263.585938 212.351562 260.972656 C 214.171875 260.386719 215.84375 259.632812 217.445312 259.003906 C 218.226562 258.644531 218.984375 258.292969 219.714844 257.953125 C 220.082031 257.78125 220.441406 257.617188 220.792969 257.453125 C 221.140625 257.285156 221.472656 257.097656 221.804688 256.925781 C 223.117188 256.226562 224.335938 255.613281 225.363281 254.964844 C 225.882812 254.652344 226.371094 254.359375 226.828125 254.085938 C 227.054688 253.949219 227.273438 253.816406 227.480469 253.691406 C 227.6875 253.550781 227.878906 253.421875 228.066406 253.296875 C 228.066406 253.296875 228.761719 252.828125 229.457031 252.363281 C 229.808594 252.128906 230.15625 251.898438 230.414062 251.722656 C 230.679688 251.554688 230.84375 251.421875 230.84375 251.421875 C 230.84375 251.421875 231.589844 250.878906 232.710938 250.070312 C 232.992188 249.867188 233.296875 249.648438 233.617188 249.417969 C 233.929688 249.167969 234.257812 248.910156 234.59375 248.640625 C 235.269531 248.097656 236 247.53125 236.707031 246.945312 C 238.089844 245.722656 239.5 244.53125 240.472656 243.539062 C 240.96875 243.058594 241.382812 242.660156 241.671875 242.378906 C 241.964844 242.097656 242.125 241.933594 242.125 241.933594 C 242.125 241.933594 242.765625 241.269531 243.722656 240.269531 C 244.707031 239.296875 245.878906 237.867188 247.097656 236.484375 C 248.234375 235.027344 249.421875 233.609375 250.195312 232.457031 C 251.003906 231.332031 251.539062 230.578125 251.539062 230.578125 L 253.398438 227.785156 C 257.265625 221.757812 260.363281 215.191406 262.390625 208.277344 C 264.496094 201.382812 265.46875 194.148438 265.53125 186.921875 L 265.53125 186.917969 L 265.535156 186.867188 L 265.53125 186.8125 " fill-opacity="1" fill-rule="nonzero"/></g><g clip-path="url(#adee80d982)"><g clip-path="url(#e66ef8bfa3)"><path fill="#00a2ea" d="M 88.679688 88.679688 L 286.160156 88.679688 L 286.160156 286.160156 L 88.679688 286.160156 Z M 88.679688 88.679688 " fill-opacity="1" fill-rule="nonzero"/></g></g><g fill="#00a2ea" fill-opacity="1"><g transform="translate(166.779632, 209.529596)"><g><path d="M 10.359375 0 L 2.921875 0 C 2.421875 0 2.070312 -0.160156 1.875 -0.484375 C 1.675781 -0.804688 1.675781 -1.195312 1.875 -1.65625 L 13.515625 -24.6875 L 2.25 -46.609375 C 2.050781 -47.003906 2.050781 -47.375 2.25 -47.71875 C 2.445312 -48.070312 2.796875 -48.25 3.296875 -48.25 L 10.5 -48.25 C 11.75 -48.25 12.578125 -47.722656 12.984375 -46.671875 L 20.109375 -30.546875 L 20.40625 -30.546875 L 27.46875 -46.671875 C 27.96875 -47.722656 28.769531 -48.25 29.875 -48.25 L 37.21875 -48.25 C 37.71875 -48.25 38.082031 -48.0625 38.3125 -47.6875 C 38.539062 -47.3125 38.550781 -46.925781 38.34375 -46.53125 L 26.9375 -24.6875 L 38.578125 -1.71875 C 38.828125 -1.21875 38.847656 -0.804688 38.640625 -0.484375 C 38.441406 -0.160156 38.066406 0 37.515625 0 L 30.015625 0 C 28.960938 0 28.238281 -0.5 27.84375 -1.5 L 20.40625 -17.71875 L 20.109375 -17.71875 L 12.609375 -1.5 C 12.160156 -0.5 11.410156 0 10.359375 0 Z M 10.359375 0 "/></g></g></g><g fill="#00a2ea" fill-opacity="1"><g transform="translate(166.49854, 138.502986)"><g><path d="M 7.144531 -1.832031 L 6.613281 -3.910156 L 2.574219 -2.875 L 0.566406 -10.707031 L -1.757812 -10.113281 L 0.78125 -0.199219 Z M 7.144531 -1.832031 "/></g></g></g><g fill="#00a2ea" fill-opacity="1"><g transform="translate(174.713781, 136.339976)"><g><path d="M 5.53125 -0.367188 C 8.984375 -0.738281 10.332031 -3.394531 10.023438 -6.234375 C 9.71875 -9.074219 7.839844 -11.355469 4.386719 -10.980469 C 0.90625 -10.605469 -0.429688 -7.980469 -0.121094 -5.140625 C 0.183594 -2.300781 2.050781 0.0078125 5.53125 -0.367188 Z M 5.300781 -2.5 C 3.703125 -2.328125 2.605469 -3.476562 2.398438 -5.410156 C 2.191406 -7.332031 3.015625 -8.675781 4.617188 -8.847656 C 6.21875 -9.019531 7.296875 -7.882812 7.503906 -5.960938 C 7.714844 -4.027344 6.902344 -2.671875 5.300781 -2.5 Z M 5.300781 -2.5 "/></g></g></g><g fill="#00a2ea" fill-opacity="1"><g transform="translate(186.649294, 135.129611)"><g><path d="M 5.503906 0.558594 C 6.441406 0.613281 7.523438 0.476562 8.289062 -0.457031 L 8.234375 0.492188 L 10.417969 0.625 L 10.757812 -5.082031 L 6.230469 -5.351562 L 6.117188 -3.421875 L 8.246094 -3.296875 C 8.101562 -1.988281 7.25 -1.488281 5.898438 -1.570312 C 4.023438 -1.679688 3.136719 -2.996094 3.25 -4.9375 C 3.367188 -6.867188 4.40625 -8.054688 6.011719 -7.957031 C 7.269531 -7.882812 7.976562 -7.328125 8.15625 -6.296875 L 10.78125 -6.140625 C 10.578125 -8.371094 9.03125 -9.925781 6.140625 -10.097656 C 2.644531 -10.308594 0.890625 -7.941406 0.722656 -5.089844 C 0.550781 -2.238281 2.007812 0.347656 5.503906 0.558594 Z M 5.503906 0.558594 "/></g></g></g><g fill="#00a2ea" fill-opacity="1"><g transform="translate(198.633018, 135.924108)"><g><path d="M 5.347656 1.46875 C 8.730469 2.25 10.875 0.183594 11.515625 -2.597656 C 12.160156 -5.382812 11.132812 -8.152344 7.746094 -8.933594 C 4.335938 -9.722656 2.214844 -7.679688 1.570312 -4.894531 C 0.929688 -2.113281 1.933594 0.679688 5.347656 1.46875 Z M 5.828125 -0.621094 C 4.261719 -0.984375 3.601562 -2.429688 4.039062 -4.324219 C 4.476562 -6.207031 5.695312 -7.207031 7.265625 -6.84375 C 8.832031 -6.480469 9.480469 -5.050781 9.046875 -3.167969 C 8.609375 -1.273438 7.398438 -0.261719 5.828125 -0.621094 Z M 5.828125 -0.621094 "/></g></g></g><g fill="#00a2ea" fill-opacity="1"><g transform="translate(166.235102, 244.426354)"><g><path d="M 3.140625 0.648438 L 3.957031 -3.304688 L 7.765625 -2.515625 L 6.949219 1.4375 L 9.296875 1.925781 L 11.375 -8.09375 L 9.023438 -8.582031 L 8.203125 -4.613281 L 4.394531 -5.402344 L 5.214844 -9.371094 L 2.863281 -9.859375 L 0.789062 0.164062 Z M 3.140625 0.648438 "/></g></g></g><g fill="#00a2ea" fill-opacity="1"><g transform="translate(178.449031, 246.730405)"><g><path d="M 7.777344 0.46875 L 7.90625 -1.675781 L 3.328125 -1.949219 L 3.441406 -3.851562 L 7.578125 -3.601562 L 7.707031 -5.730469 L 3.570312 -5.980469 L 3.6875 -7.878906 L 8.265625 -7.605469 L 8.394531 -9.746094 L 1.417969 -10.167969 L 0.804688 0.046875 Z M 7.777344 0.46875 "/></g></g></g><g fill="#00a2ea" fill-opacity="1"><g transform="translate(188.891436, 247.253534)"><g><path d="M 7.035156 -4.953125 C 7.890625 -5.53125 8.378906 -6.527344 8.277344 -7.824219 C 8.101562 -10.042969 6.683594 -10.792969 4.8125 -10.644531 L 0 -10.265625 L 0.800781 -0.0625 L 3.195312 -0.25 L 2.886719 -4.183594 L 4.824219 -4.335938 L 6.617188 -0.519531 L 9.144531 -0.71875 Z M 4.648438 -8.480469 C 5.421875 -8.539062 5.863281 -8.222656 5.917969 -7.554688 C 5.972656 -6.859375 5.585938 -6.480469 4.808594 -6.417969 L 2.722656 -6.253906 L 2.5625 -8.3125 Z M 4.648438 -8.480469 "/></g></g></g><g fill="#00a2ea" fill-opacity="1"><g transform="translate(200.417274, 246.162332)"><g><path d="M 7.609375 -1.679688 L 7.148438 -3.773438 L 2.667969 -2.785156 L 2.257812 -4.644531 L 6.304688 -5.539062 L 5.84375 -7.621094 L 1.796875 -6.730469 L 1.386719 -8.589844 L 5.867188 -9.578125 L 5.402344 -11.671875 L -1.421875 -10.167969 L 0.785156 -0.171875 Z M 7.609375 -1.679688 "/></g></g></g></svg>